<svg width="16" height="16" viewBox="0 0 16 16" fill="none" xmlns="http://www.w3.org/2000/svg">
<g id="gg:danger">
<g id="Group">
<path id="Vector" d="M8.00004 4C8.17685 4 8.34642 4.07024 8.47145 4.19526C8.59647 4.32029 8.66671 4.48986 8.66671 4.66667V8.66667C8.66671 8.84348 8.59647 9.01305 8.47145 9.13807C8.34642 9.2631 8.17685 9.33333 8.00004 9.33333C7.82323 9.33333 7.65366 9.2631 7.52864 9.13807C7.40361 9.01305 7.33337 8.84348 7.33337 8.66667V4.66667C7.33337 4.48986 7.40361 4.32029 7.52864 4.19526C7.65366 4.07024 7.82323 4 8.00004 4ZM8.00004 10.6667C7.82323 10.6667 7.65366 10.7369 7.52864 10.8619C7.40361 10.987 7.33337 11.1565 7.33337 11.3333C7.33337 11.5101 7.40361 11.6797 7.52864 11.8047C7.65366 11.9298 7.82323 12 8.00004 12C8.17685 12 8.34642 11.9298 8.47145 11.8047C8.59647 11.6797 8.66671 11.5101 8.66671 11.3333C8.66671 11.1565 8.59647 10.987 8.47145 10.8619C8.34642 10.7369 8.17685 10.6667 8.00004 10.6667Z" fill="#DA3E52"/>
<path id="Vector_2" fill-rule="evenodd" clip-rule="evenodd" d="M8.00004 1.33334C4.31804 1.33334 1.33337 4.31801 1.33337 8.00001C1.33337 11.682 4.31804 14.6667 8.00004 14.6667C11.682 14.6667 14.6667 11.682 14.6667 8.00001C14.6667 4.31801 11.682 1.33334 8.00004 1.33334ZM2.66671 8.00001C2.66671 9.4145 3.22861 10.7711 4.2288 11.7712C5.229 12.7714 6.58555 13.3333 8.00004 13.3333C9.41453 13.3333 10.7711 12.7714 11.7713 11.7712C12.7715 10.7711 13.3334 9.4145 13.3334 8.00001C13.3334 6.58552 12.7715 5.22897 11.7713 4.22877C10.7711 3.22858 9.41453 2.66668 8.00004 2.66668C6.58555 2.66668 5.229 3.22858 4.2288 4.22877C3.22861 5.22897 2.66671 6.58552 2.66671 8.00001Z" fill="#DA3E52"/>
</g>
</g>
</svg>
