<svg width="32" height="32" viewBox="0 0 32 32" fill="none" xmlns="http://www.w3.org/2000/svg">
<path d="M16.912 5.36673C14.7326 5.17977 12.5483 5.66741 10.6553 6.76355C8.76229 7.85969 7.25206 9.51133 6.32928 11.4946C5.4065 13.4779 5.11579 15.697 5.49655 17.8511C5.87732 20.0051 6.91114 21.9901 8.45791 23.5368C10.0047 25.0836 11.9896 26.1174 14.1437 26.4982C16.2978 26.879 18.5168 26.5882 20.5001 25.6655C22.4834 24.7427 24.1351 23.2325 25.2312 21.3394C26.3273 19.4464 26.815 17.2622 26.628 15.0827C26.5344 13.9629 26.263 12.8651 25.824 11.8307L27.824 9.82806C28.8198 11.7313 29.3378 13.8481 29.3334 15.9961C29.3334 23.3587 23.364 29.3294 16 29.3294C8.63602 29.3294 2.66669 23.3587 2.66669 15.9961C2.66669 8.63206 8.63602 2.66273 16 2.66273C18.1477 2.66076 20.2639 3.17862 22.168 4.17206L20.1667 6.17206C19.1319 5.73259 18.0337 5.46074 16.9134 5.36673H16.912ZM27.3134 2.79606L29.2 4.68139L16.9427 16.9387L15.06 16.9414L15.0574 15.0534L27.3134 2.79606Z" fill="#424A4D"/>
</svg>
