<svg width="83" height="82" viewBox="0 0 83 82" fill="none" xmlns="http://www.w3.org/2000/svg">
<path d="M1 80.2079H81" stroke="#1989AC" stroke-width="2" stroke-linecap="round"/>
<path d="M59.75 47.7203C58.2414 47.7188 56.7511 48.0477 55.3859 48.6833L48.2656 36.5817H56C56.7459 36.5817 57.4613 36.875 57.9887 37.3973C58.5162 37.9195 58.8125 38.6278 58.8125 39.3663C58.8125 39.6125 58.9113 39.8486 59.0871 40.0227C59.2629 40.1967 59.5013 40.2945 59.75 40.2945C59.9986 40.2945 60.2371 40.1967 60.4129 40.0227C60.5887 39.8486 60.6875 39.6125 60.6875 39.3663C60.6875 38.1354 60.1936 36.9549 59.3145 36.0846C58.4355 35.2142 57.2432 34.7252 56 34.7252H46.625C46.4605 34.7254 46.299 34.7684 46.1566 34.8499C46.0142 34.9315 45.896 35.0487 45.8138 35.1897C45.7316 35.3308 45.6884 35.4908 45.6884 35.6537C45.6885 35.8165 45.7318 35.9765 45.814 36.1175L49.3672 42.151H33.7344L29.6234 35.1893C29.5412 35.0484 29.423 34.9313 29.2807 34.8498C29.1384 34.7684 28.9769 34.7254 28.8125 34.7252H22.25C22.0013 34.7252 21.7629 34.823 21.5871 34.9971C21.4113 35.1712 21.3125 35.4073 21.3125 35.6534C21.3125 35.8996 21.4113 36.1357 21.5871 36.3098C21.7629 36.4839 22.0013 36.5817 22.25 36.5817H28.2734L32.068 43.0235L27.5398 49.1706C25.2603 47.8001 22.5347 47.3526 19.9304 47.9213C17.3261 48.4899 15.0434 50.0309 13.5575 52.2236C12.0716 54.4163 11.4967 57.0918 11.9526 59.6934C12.4085 62.2951 13.86 64.6225 16.0051 66.1914C18.1502 67.7604 20.8237 68.45 23.4693 68.1168C26.1149 67.7836 28.5289 66.4533 30.209 64.4026C31.889 62.3519 32.7058 59.7388 32.4894 57.107C32.2729 54.4752 31.0399 52.0274 29.0469 50.2729L33.0992 44.7732L41.1265 58.3948C41.2087 58.5357 41.3269 58.6528 41.4693 58.7343C41.6116 58.8157 41.7731 58.8587 41.9375 58.8589C42.102 58.8574 42.2634 58.8143 42.4062 58.7336C42.5129 58.6722 42.6062 58.5905 42.6809 58.4933C42.7556 58.3961 42.8102 58.2852 42.8416 58.1671C42.873 58.049 42.8804 57.9259 42.8637 57.8049C42.8469 57.6838 42.8061 57.5673 42.7437 57.4619L34.8148 44.0028H50.457L53.764 49.6162C51.7613 51.0295 50.3346 53.1051 49.7415 55.4683C49.1484 57.8315 49.4278 60.3268 50.5294 62.504C51.631 64.6811 53.4822 66.3968 55.7491 67.3415C58.0159 68.2861 60.5491 68.3975 62.8916 67.6556C65.2341 66.9137 67.2317 65.3673 68.524 63.2954C69.8162 61.2235 70.318 58.7625 69.9388 56.3566C69.5597 53.9506 68.3245 51.758 66.4562 50.1744C64.5879 48.5907 62.2094 47.7204 59.75 47.7203ZM30.6875 57.9307C30.6885 59.768 30.0776 61.5544 28.9495 63.0133C27.8215 64.4722 26.2391 65.5222 24.4474 66.0007C22.6557 66.4792 20.7547 66.3595 19.0386 65.6602C17.3226 64.9609 15.8872 63.721 14.9548 62.1324C14.0224 60.5438 13.645 58.6952 13.881 56.8728C14.1169 55.0503 14.9531 53.3557 16.2601 52.0514C17.5671 50.747 19.2719 49.9057 21.1106 49.6576C22.9494 49.4095 24.8194 49.7685 26.4312 50.679L21.493 57.383C21.3463 57.5818 21.2853 57.8302 21.3236 58.0734C21.3618 58.3167 21.4961 58.535 21.6969 58.6802C21.8976 58.8254 22.1485 58.8858 22.3942 58.8479C22.6399 58.8101 22.8603 58.6771 23.007 58.4783L27.9453 51.7719C28.8097 52.5534 29.5 53.5047 29.9721 54.5651C30.4443 55.6255 30.6879 56.7718 30.6875 57.9307ZM59.75 66.2846C57.9769 66.2835 56.2492 65.7294 54.8122 64.7009C53.3753 63.6724 52.3021 62.2218 51.7451 60.5552C51.188 58.8885 51.1754 57.0905 51.7091 55.4163C52.2427 53.7422 53.2955 52.277 54.718 51.2289L58.9367 58.3994C59.0189 58.5404 59.1371 58.6575 59.2794 58.7389C59.4218 58.8204 59.5832 58.8634 59.7476 58.8635C59.9121 58.8621 60.0735 58.8189 60.2164 58.7382C60.323 58.6768 60.4164 58.5952 60.4911 58.4979C60.5658 58.4007 60.6204 58.2899 60.6518 58.1718C60.6831 58.0536 60.6906 57.9305 60.6738 57.8095C60.657 57.6885 60.6163 57.5719 60.5539 57.4666L56.3351 50.2984C57.484 49.7922 58.7327 49.5466 59.9898 49.5797C61.2468 49.6127 62.4806 49.9236 63.6007 50.4895C64.7208 51.0554 65.699 51.862 66.4637 52.8504C67.2285 53.8388 67.7604 54.984 68.0206 56.2021C68.2808 57.4202 68.2627 58.6805 67.9677 59.8908C67.6726 61.1011 67.108 62.2309 66.3152 63.1973C65.5224 64.1638 64.5215 64.9426 63.3856 65.4768C62.2496 66.0109 61.0075 66.2869 59.75 66.2846Z" fill="#1989AC"/>
<path d="M6.5 41.594L6.5 80.2079" stroke="#1989AC" stroke-width="2" stroke-linecap="round"/>
<path d="M76.5 41.594L76.5 80.2079" stroke="#1989AC" stroke-width="2" stroke-linecap="round"/>
<line x1="1" y1="-1" x2="56.6964" y2="-1" transform="matrix(-0.710616 0.70358 -0.710616 -0.70358 41 1)" stroke="#1989AC" stroke-width="2" stroke-linecap="round"/>
<path d="M81.6465 41.594L41.6465 1.99003" stroke="#1989AC" stroke-width="2" stroke-linecap="round"/>
</svg>
