<svg width="30" height="50" viewBox="0 0 30 50" fill="none" xmlns="http://www.w3.org/2000/svg">
<path id="Vector" d="M1.30956 1.31546C0.894432 1.72973 0.565089 2.22181 0.340378 2.76352C0.115667 3.30524 0 3.88595 0 4.47242C0 5.0589 0.115667 5.63961 0.340378 6.18132C0.565089 6.72304 0.894432 7.21512 1.30956 7.62939L18.6841 25.0039L1.30956 42.3784C0.472276 43.2157 0.00189611 44.3513 0.00189611 45.5354C0.00189611 46.7195 0.472276 47.8551 1.30956 48.6923C2.14684 49.5296 3.28243 50 4.46652 50C5.65061 50 6.78621 49.5296 7.62349 48.6923L28.1774 28.1385C28.5925 27.7242 28.9218 27.2321 29.1465 26.6904C29.3712 26.1487 29.4869 25.568 29.4869 24.9815C29.4869 24.395 29.3712 23.8143 29.1465 23.2726C28.9218 22.7309 28.5925 22.2388 28.1774 21.8245L7.62349 1.27068C5.92186 -0.43095 3.05596 -0.430949 1.30956 1.31546Z" fill="#1989AC"/>
</svg>
