<svg width="32" height="32" viewBox="0 0 32 32" fill="none" xmlns="http://www.w3.org/2000/svg">
<g id="Property 1=Default">
<path id="Vector" d="M16.1 20.6333C15.4555 20.6555 14.8391 20.5502 14.2506 20.3173C13.6622 20.0844 13.1453 19.7453 12.7 19.3C12.2555 18.8555 11.9164 18.3555 11.6826 17.8C11.4488 17.2444 11.3324 16.6555 11.3333 16.0333C11.3333 15.8111 11.3444 15.5942 11.3666 15.3826C11.3888 15.1711 11.4333 14.9657 11.5 14.7666C11.5888 14.5 11.5831 14.2333 11.4826 13.9666C11.3822 13.7 11.2102 13.5111 10.9666 13.4C10.7 13.2888 10.4386 13.2888 10.1826 13.4C9.92663 13.5111 9.75463 13.7 9.66663 13.9666C9.55552 14.3 9.47196 14.6333 9.41596 14.9666C9.35996 15.3 9.3324 15.6444 9.33329 16C9.33329 16.8888 9.50574 17.7391 9.85063 18.5506C10.1955 19.3622 10.6786 20.0786 11.3 20.7C11.9 21.3222 12.6057 21.8 13.4173 22.1333C14.2288 22.4666 15.0675 22.6444 15.9333 22.6666L15.3666 23.2333C15.1666 23.4333 15.0666 23.6666 15.0666 23.9333C15.0666 24.2 15.1666 24.4333 15.3666 24.6333C15.5666 24.8333 15.8 24.9333 16.0666 24.9333C16.3333 24.9333 16.5666 24.8333 16.7666 24.6333L18.9 22.5C19.1666 22.2333 19.3 21.9222 19.3 21.5666C19.3 21.2111 19.1666 20.9 18.9 20.6333L16.7666 18.5C16.5666 18.3 16.3333 18.2 16.0666 18.2C15.8 18.2 15.5666 18.3 15.3666 18.5C15.1666 18.7 15.0666 18.9333 15.0666 19.2C15.0666 19.4666 15.1666 19.7 15.3666 19.9L16.1 20.6333ZM15.8666 11.3333C16.5111 11.3333 17.1333 11.4502 17.7333 11.684C18.3333 11.9177 18.8555 12.2564 19.3 12.7C19.7444 13.1444 20.0835 13.6444 20.3173 14.2C20.5511 14.7555 20.6675 15.3444 20.6666 15.9666C20.6666 16.1888 20.6555 16.4053 20.6333 16.616C20.6111 16.8266 20.5666 17.0324 20.5 17.2333C20.4111 17.5 20.4168 17.772 20.5173 18.0493C20.6177 18.3266 20.7897 18.5213 21.0333 18.6333C21.3 18.7444 21.5613 18.7444 21.8173 18.6333C22.0733 18.5222 22.2453 18.3333 22.3333 18.0666C22.4444 17.7333 22.528 17.3942 22.584 17.0493C22.64 16.7044 22.6675 16.3546 22.6666 16C22.6666 15.1111 22.5053 14.2608 22.1826 13.4493C21.86 12.6377 21.3768 11.9102 20.7333 11.2666C20.1111 10.6444 19.3942 10.1724 18.5826 9.85063C17.7711 9.52885 16.9324 9.36752 16.0666 9.36663L16.6666 8.76663C16.8444 8.56663 16.9333 8.33329 16.9333 8.06663C16.9333 7.79996 16.8333 7.56663 16.6333 7.36663C16.4333 7.16663 16.2 7.06663 15.9333 7.06663C15.6666 7.06663 15.4333 7.16663 15.2333 7.36663L13.1 9.49996C12.8333 9.76663 12.7 10.0777 12.7 10.4333C12.7 10.7888 12.8333 11.1 13.1 11.3666L15.2333 13.5C15.4333 13.7 15.6666 13.8 15.9333 13.8C16.2 13.8 16.4333 13.7 16.6333 13.5C16.8333 13.3 16.9333 13.0666 16.9333 12.8C16.9333 12.5333 16.8333 12.3 16.6333 12.1L15.8666 11.3333ZM16 29.3333C14.1555 29.3333 12.4222 28.9831 10.8 28.2826C9.17774 27.5822 7.76663 26.6324 6.56663 25.4333C5.36663 24.2333 4.41685 22.8222 3.71729 21.2C3.01774 19.5777 2.66751 17.8444 2.66663 16C2.66663 14.1555 3.01685 12.4222 3.71729 10.8C4.41774 9.17774 5.36752 7.76663 6.56663 6.56663C7.76663 5.36663 9.17774 4.41685 10.8 3.71729C12.4222 3.01774 14.1555 2.66751 16 2.66663C17.8444 2.66663 19.5777 3.01685 21.2 3.71729C22.8222 4.41774 24.2333 5.36752 25.4333 6.56663C26.6333 7.76663 27.5835 9.17774 28.284 10.8C28.9844 12.4222 29.3342 14.1555 29.3333 16C29.3333 17.8444 28.9831 19.5777 28.2826 21.2C27.5822 22.8222 26.6324 24.2333 25.4333 25.4333C24.2333 26.6333 22.8222 27.5835 21.2 28.284C19.5777 28.9844 17.8444 29.3342 16 29.3333ZM16 26.6666C18.9777 26.6666 21.5 25.6333 23.5666 23.5666C25.6333 21.5 26.6666 18.9777 26.6666 16C26.6666 13.0222 25.6333 10.5 23.5666 8.43329C21.5 6.36663 18.9777 5.33329 16 5.33329C13.0222 5.33329 10.5 6.36663 8.43329 8.43329C6.36663 10.5 5.33329 13.0222 5.33329 16C5.33329 18.9777 6.36663 21.5 8.43329 23.5666C10.5 25.6333 13.0222 26.6666 16 26.6666Z" fill="#424A4D"/>
</g>
</svg>
